<?xml version="1.0" encoding="utf-8"?>
<!-- Generator: Adobe Illustrator 19.1.0, SVG Export Plug-In . SVG Version: 6.00 Build 0)  -->
<svg version="1.1" id="Layer_1" xmlns="http://www.w3.org/2000/svg" xmlns:xlink="http://www.w3.org/1999/xlink" x="0px" y="0px"
	 viewBox="0 0 360 90" style="enable-background:new 0 0 360 90;" xml:space="preserve">
<style type="text/css">
	.st0{fill:none;}
	.st1{font-family:'Calibri-Bold';}
	.st2{font-size:226px;}
	.st3{fill:#F0F1F1;}
	.st4{fill:#65A8DE;}
	.st5{fill:#C5C6C8;}
	.st6{fill:#979797;}
	.st7{fill:#FFFFFF;}
	.st8{fill:url(#SVGID_1_);}
	.st9{fill:url(#SVGID_2_);}
	.st10{fill:#B3B3B3;}
	.st11{fill:none;stroke:#000000;stroke-miterlimit:10;}
	.st12{fill:none;stroke:#F6861F;stroke-width:0.9569;stroke-miterlimit:10;}
	.st13{fill:none;stroke:#FFFFFF;stroke-width:16;stroke-linecap:round;stroke-miterlimit:10;}
	.st14{fill:#F6861F;}
	.st15{font-size:97.4329px;}
	.st16{fill:none;stroke:#FFFFFF;stroke-width:6.8979;stroke-linecap:round;stroke-miterlimit:10;}
</style>
<rect x="232.5" y="-220.6" class="st0" width="607.2" height="169.3"/>
<text transform="matrix(1 0 0 1 232.4894 -67.4133)" class="st1 st2">Presto</text>
<rect x="97.3" y="13.5" class="st0" width="257.5" height="73"/>
<text transform="matrix(1 0 0 1 97.2841 79.6001)" class="st1 st15">Prest</text>
<circle class="st14" cx="44.7" cy="45" r="43.3"/>
<g>
	<path class="st16" d="M29.3,46.8c-1.9-0.4-4-1.1-5.9-1c-3.4,0.2-6.6,2.5-8,5.6c-1.4,3.3,0.3,6.6,2.8,8.8c1.4,1.2,12.1,7.2,12.1,7.2
		"/>
	<line class="st16" x1="30.7" y1="66.8" x2="55.7" y2="22.2"/>
	<path class="st16" d="M56.7,42.1c1.9,0.4,4,1.1,5.9,1c3.4-0.2,6.6-2.5,8-5.6c1.4-3.3-0.3-6.6-2.8-8.8c0,0-0.1-0.1-1.3-0.7
		l-10.4-5.6"/>
</g>
</svg>
