<?xml version="1.0" encoding="utf-8"?>
<!-- Generator: Adobe Illustrator 19.1.0, SVG Export Plug-In . SVG Version: 6.00 Build 0)  -->
<svg version="1.1" id="Layer_1" xmlns="http://www.w3.org/2000/svg" xmlns:xlink="http://www.w3.org/1999/xlink" x="0px" y="0px"
	 viewBox="-322 456 355 90" style="enable-background:new -322 456 355 90;" xml:space="preserve">
<style type="text/css">
	.st0{fill:none;}
	.st1{font-family:'Calibri-Bold';}
	.st2{font-size:97.4329px;}
	.st3{fill:#F6861F;}
	.st4{fill:none;stroke:#FFFFFF;stroke-width:6.8979;stroke-linecap:round;stroke-miterlimit:10;}
</style>
<rect x="-89.5" y="235.4" class="st0" width="607.2" height="169.3"/>
<g>
	<rect x="-223" y="469.5" class="st0" width="261.8" height="73"/>
	<rect x="-223" y="456.1" class="st0" width="257.4" height="89.9"/>
	<text transform="matrix(1 0 0 1 -223.0407 535.6001)" class="st1 st2">Prest</text>
	<circle class="st3" cx="-277.3" cy="501" r="43.3"/>
	<g>
		<path class="st4" d="M-292.7,502.8c-1.9-0.4-4-1.1-5.9-1c-3.4,0.2-6.6,2.5-8,5.6c-1.4,3.3,0.3,6.6,2.8,8.8
			c1.4,1.2,12.1,7.2,12.1,7.2"/>
		<line class="st4" x1="-291.3" y1="522.8" x2="-266.3" y2="478.2"/>
		<path class="st4" d="M-265.3,498.1c1.9,0.4,4,1.1,5.9,1c3.4-0.2,6.6-2.5,8-5.6c1.4-3.3-0.3-6.6-2.8-8.8c0,0-0.1-0.1-1.3-0.7
			l-10.4-5.6"/>
	</g>
</g>
</svg>
