<?xml version="1.0" encoding="utf-8"?>
<!-- Generator: Adobe Illustrator 19.1.0, SVG Export Plug-In . SVG Version: 6.00 Build 0)  -->
<svg version="1.1" id="Layer_1" xmlns="http://www.w3.org/2000/svg" xmlns:xlink="http://www.w3.org/1999/xlink" x="0px" y="0px"
	 viewBox="0 0 174 174" style="enable-background:new 0 0 174 174;" xml:space="preserve">
<style type="text/css">
	.st0{fill:#F0F1F1;}
	.st1{fill:#65A8DE;}
	.st2{fill:#C5C6C8;}
</style>
<path class="st0" d="M87,174L87,174c-48,0-87-39-87-87v0C0,39,39,0,87,0h0c48,0,87,39,87,87v0C174,135,135,174,87,174z"/>
<g>
	<path class="st1" d="M54.8,100.6h-0.1c-9.9,0-17.9-8-17.9-17.9v-0.1c0-9.9,8-17.9,17.9-17.9h0.1c9.9,0,17.9,8,17.9,17.9v0.1
		C72.8,92.6,64.8,100.6,54.8,100.6z"/>
	<path class="st2" d="M97.5,135.9h-0.2c-13.9,0-25.2-11.3-25.2-25.2v-0.2c0-13.9,11.3-25.2,25.2-25.2h0.2
		c13.9,0,25.2,11.3,25.2,25.2v0.2C122.7,124.6,111.4,135.9,97.5,135.9z"/>
	<path d="M95.3,76.5h-0.2c-13.1,0-23.7-10.6-23.7-23.7v-0.2C71.4,39.6,82,29,95.1,29h0.2c13.1,0,23.7,10.6,23.7,23.7v0.2
		C118.9,65.9,108.3,76.5,95.3,76.5z"/>
</g>
</svg>
